<svg width="65" height="64" viewBox="0 0 65 64" fill="none" xmlns="http://www.w3.org/2000/svg">
    <path
        d="M53.8327 42.6666C52.1775 42.6751 50.5656 43.1969 49.2194 44.1599L42.686 40.2933C42.9943 39.3364 43.1561 38.3385 43.166 37.3333C43.1584 34.9744 42.369 32.6847 40.9215 30.8222C39.474 28.9598 37.45 27.6296 35.166 27.0399V20.8533C36.9453 20.2242 38.4448 18.9864 39.3997 17.3587C40.3546 15.7309 40.7033 13.818 40.3841 11.958C40.065 10.098 39.0986 8.4107 37.6558 7.19432C36.2129 5.97794 34.3865 5.31079 32.4994 5.31079C30.6122 5.31079 28.7858 5.97794 27.3429 7.19432C25.9001 8.4107 24.9337 10.098 24.6146 11.958C24.2954 13.818 24.6441 15.7309 25.599 17.3587C26.5539 18.9864 28.0534 20.2242 29.8327 20.8533V27.0399C27.5488 27.6296 25.5247 28.9598 24.0772 30.8222C22.6297 32.6847 21.8403 34.9744 21.8327 37.3333C21.8426 38.3385 22.0044 39.3364 22.3127 40.2933L15.7794 44.1599C14.4331 43.1969 12.8213 42.6751 11.166 42.6666C9.58377 42.6666 8.03705 43.1358 6.72146 44.0148C5.40586 44.8939 4.38048 46.1433 3.77498 47.6051C3.16948 49.0669 3.01106 50.6755 3.31974 52.2273C3.62842 53.7792 4.39034 55.2046 5.50917 56.3235C6.62799 57.4423 8.05345 58.2042 9.6053 58.5129C11.1571 58.8216 12.7657 58.6631 14.2275 58.0576C15.6893 57.4521 16.9387 56.4268 17.8178 55.1112C18.6968 53.7956 19.166 52.2488 19.166 50.6666C19.1562 49.9443 19.0485 49.2267 18.846 48.5333L24.9794 44.8799C26.9779 46.8666 29.6814 47.9817 32.4994 47.9817C35.3173 47.9817 38.0208 46.8666 40.0194 44.8799L46.1527 48.5333C45.7059 50.1482 45.7774 51.8627 46.3572 53.4348C46.937 55.0069 47.9959 56.3573 49.3843 57.2953C50.7727 58.2334 52.4206 58.7119 54.0955 58.6632C55.7704 58.6145 57.3878 58.0411 58.7193 57.0239C60.0509 56.0067 61.0295 54.5971 61.517 52.994C62.0045 51.3909 61.9763 49.6751 61.4364 48.0889C60.8965 46.5026 59.8721 45.1259 58.5079 44.1531C57.1436 43.1802 55.5083 42.6602 53.8327 42.6666ZM11.166 53.3333C10.6386 53.3333 10.123 53.1769 9.6845 52.8839C9.24597 52.5908 8.90417 52.1744 8.70234 51.6871C8.50051 51.1998 8.4477 50.6636 8.55059 50.1464C8.65349 49.6291 8.90746 49.1539 9.2804 48.781C9.65334 48.408 10.1285 48.1541 10.6458 48.0512C11.1631 47.9483 11.6992 48.0011 12.1865 48.2029C12.6738 48.4048 13.0903 48.7465 13.3833 49.1851C13.6763 49.6236 13.8327 50.1392 13.8327 50.6666C13.8327 51.3738 13.5517 52.0521 13.0516 52.5522C12.5515 53.0523 11.8733 53.3333 11.166 53.3333ZM32.4994 10.6666C33.0268 10.6666 33.5423 10.823 33.9809 11.116C34.4194 11.409 34.7612 11.8255 34.963 12.3128C35.1649 12.8 35.2177 13.3362 35.1148 13.8535C35.0119 14.3708 34.7579 14.8459 34.385 15.2189C34.012 15.5918 33.5369 15.8458 33.0196 15.9487C32.5023 16.0516 31.9661 15.9988 31.4789 15.7969C30.9916 15.5951 30.5751 15.2533 30.2821 14.8148C29.9891 14.3763 29.8327 13.8607 29.8327 13.3333C29.8327 12.626 30.1136 11.9477 30.6137 11.4476C31.1138 10.9475 31.7921 10.6666 32.4994 10.6666ZM32.4994 42.6666C31.4445 42.6666 30.4134 42.3538 29.5363 41.7678C28.6593 41.1817 27.9757 40.3488 27.572 39.3742C27.1683 38.3997 27.0627 37.3273 27.2685 36.2928C27.4743 35.2582 27.9822 34.3079 28.7281 33.562C29.474 32.8161 30.4243 32.3082 31.4589 32.1024C32.4934 31.8966 33.5658 32.0022 34.5403 32.4059C35.5149 32.8096 36.3478 33.4932 36.9339 34.3702C37.5199 35.2473 37.8327 36.2784 37.8327 37.3333C37.8327 38.7477 37.2708 40.1043 36.2706 41.1045C35.2704 42.1047 33.9138 42.6666 32.4994 42.6666ZM53.8327 53.3333C53.3053 53.3333 52.7897 53.1769 52.3512 52.8839C51.9126 52.5908 51.5708 52.1744 51.369 51.6871C51.1672 51.1998 51.1144 50.6636 51.2173 50.1464C51.3202 49.6291 51.5741 49.1539 51.9471 48.781C52.32 48.408 52.7952 48.1541 53.3124 48.0512C53.8297 47.9483 54.3659 48.0011 54.8532 48.2029C55.3404 48.4048 55.7569 48.7465 56.0499 49.1851C56.343 49.6236 56.4994 50.1392 56.4994 50.6666C56.4994 51.3738 56.2184 52.0521 55.7183 52.5522C55.2182 53.0523 54.5399 53.3333 53.8327 53.3333Z"
        fill="#2BCACA" />
</svg>