<svg width="64" height="64" viewBox="0 0 64 64" fill="none" xmlns="http://www.w3.org/2000/svg">
    <path
        d="M56.5873 32C57.9148 30.5396 58.6556 28.6401 58.6673 26.6667C58.6673 24.5449 57.8245 22.5101 56.3242 21.0098C54.8239 19.5095 52.7891 18.6667 50.6673 18.6667H36.854C37.28 17.4618 37.4111 16.1724 37.2364 14.9065C37.0618 13.6405 36.5863 12.4348 35.85 11.3904C35.1136 10.3459 34.1378 9.49301 33.0041 8.90314C31.8704 8.31328 30.6119 8.00359 29.334 8H13.334C11.2123 8 9.17742 8.84285 7.67713 10.3431C6.17684 11.8434 5.33398 13.8783 5.33398 16C5.34575 17.9735 6.08655 19.873 7.41398 21.3333C6.1021 22.8001 5.37683 24.6988 5.37683 26.6667C5.37683 28.6345 6.1021 30.5333 7.41398 32C6.1021 33.4667 5.37683 35.3655 5.37683 37.3333C5.37683 39.3012 6.1021 41.1999 7.41398 42.6667C6.08655 44.127 5.34575 46.0265 5.33398 48C5.33398 50.1217 6.17684 52.1566 7.67713 53.6569C9.17742 55.1571 11.2123 56 13.334 56H50.6673C52.208 55.9918 53.7136 55.5388 55.003 54.6956C56.2925 53.8523 57.3111 52.6547 57.9363 51.2465C58.5615 49.8384 58.7668 48.2796 58.5275 46.7576C58.2882 45.2356 57.6145 43.815 56.5873 42.6667C57.8992 41.1999 58.6245 39.3012 58.6245 37.3333C58.6245 35.3655 57.8992 33.4667 56.5873 32ZM29.334 50.6667H13.334C12.6267 50.6667 11.9485 50.3857 11.4484 49.8856C10.9483 49.3855 10.6673 48.7072 10.6673 48C10.6673 47.2928 10.9483 46.6145 11.4484 46.1144C11.9485 45.6143 12.6267 45.3333 13.334 45.3333H29.334C30.0412 45.3333 30.7195 45.6143 31.2196 46.1144C31.7197 46.6145 32.0007 47.2928 32.0007 48C32.0007 48.7072 31.7197 49.3855 31.2196 49.8856C30.7195 50.3857 30.0412 50.6667 29.334 50.6667ZM29.334 40H13.334C12.6267 40 11.9485 39.719 11.4484 39.219C10.9483 38.7189 10.6673 38.0406 10.6673 37.3333C10.6673 36.6261 10.9483 35.9478 11.4484 35.4477C11.9485 34.9476 12.6267 34.6667 13.334 34.6667H29.334C30.0412 34.6667 30.7195 34.9476 31.2196 35.4477C31.7197 35.9478 32.0007 36.6261 32.0007 37.3333C32.0007 38.0406 31.7197 38.7189 31.2196 39.219C30.7195 39.719 30.0412 40 29.334 40ZM29.334 29.3333H13.334C12.6267 29.3333 11.9485 29.0524 11.4484 28.5523C10.9483 28.0522 10.6673 27.3739 10.6673 26.6667C10.6673 25.9594 10.9483 25.2811 11.4484 24.781C11.9485 24.281 12.6267 24 13.334 24H29.334C30.0412 24 30.7195 24.281 31.2196 24.781C31.7197 25.2811 32.0007 25.9594 32.0007 26.6667C32.0007 27.3739 31.7197 28.0522 31.2196 28.5523C30.7195 29.0524 30.0412 29.3333 29.334 29.3333ZM29.334 18.6667H13.334C12.6267 18.6667 11.9485 18.3857 11.4484 17.8856C10.9483 17.3855 10.6673 16.7072 10.6673 16C10.6673 15.2928 10.9483 14.6145 11.4484 14.1144C11.9485 13.6143 12.6267 13.3333 13.334 13.3333H29.334C30.0412 13.3333 30.7195 13.6143 31.2196 14.1144C31.7197 14.6145 32.0007 15.2928 32.0007 16C32.0007 16.7072 31.7197 17.3855 31.2196 17.8856C30.7195 18.3857 30.0412 18.6667 29.334 18.6667ZM52.5073 49.8933C52.2709 50.1427 51.9853 50.3401 51.6685 50.4733C51.3518 50.6064 51.0109 50.6723 50.6673 50.6667H36.854C37.4935 48.9464 37.4935 47.0536 36.854 45.3333H50.6673C51.3746 45.3333 52.0528 45.6143 52.5529 46.1144C53.053 46.6145 53.334 47.2928 53.334 48C53.3291 48.3547 53.2534 48.7049 53.1115 49.03C52.9695 49.3551 52.7641 49.6486 52.5073 49.8933ZM52.5073 39.2267C52.2709 39.476 51.9853 39.6735 51.6685 39.8066C51.3518 39.9397 51.0109 40.0056 50.6673 40H36.854C37.4935 38.2797 37.4935 36.3869 36.854 34.6667H50.6673C51.3746 34.6667 52.0528 34.9476 52.5529 35.4477C53.053 35.9478 53.334 36.6261 53.334 37.3333C53.3291 37.688 53.2534 38.0382 53.1115 38.3633C52.9695 38.6884 52.7641 38.9819 52.5073 39.2267ZM52.5073 28.56C52.2709 28.8093 51.9853 29.0068 51.6685 29.1399C51.3518 29.2731 51.0109 29.3389 50.6673 29.3333H36.854C37.4935 27.6131 37.4935 25.7203 36.854 24H50.6673C51.3746 24 52.0528 24.281 52.5529 24.781C53.053 25.2811 53.334 25.9594 53.334 26.6667C53.3291 27.0214 53.2534 27.3715 53.1115 27.6966C52.9695 28.0217 52.7641 28.3153 52.5073 28.56Z"
        fill="#2BCACA" />
</svg>