<svg width="64" height="64" viewBox="0 0 64 64" fill="none" xmlns="http://www.w3.org/2000/svg">
    <path
        d="M30.666 53.3333H14.666C13.9588 53.3333 13.2805 53.0524 12.7804 52.5523C12.2803 52.0522 11.9993 51.3739 11.9993 50.6666V13.3333C11.9993 12.6261 12.2803 11.9478 12.7804 11.4477C13.2805 10.9476 13.9588 10.6666 14.666 10.6666H27.9993V18.6666C27.9993 20.7884 28.8422 22.8232 30.3425 24.3235C31.8428 25.8238 33.8776 26.6666 35.9993 26.6666H43.9994V40C43.9994 40.7072 44.2803 41.3855 44.7804 41.8856C45.2805 42.3857 45.9588 42.6666 46.666 42.6666C47.3733 42.6666 48.0515 42.3857 48.5516 41.8856C49.0517 41.3855 49.3327 40.7072 49.3327 40V24C49.3327 24 49.3327 24 49.3327 23.84C49.3049 23.595 49.2513 23.3537 49.1727 23.12V22.88C49.0445 22.6058 48.8734 22.3538 48.666 22.1333L32.666 6.13331C32.4456 5.92589 32.1935 5.75486 31.9193 5.62665C31.8311 5.6112 31.7409 5.6112 31.6527 5.62665C31.3934 5.48799 31.1147 5.3891 30.826 5.33331H14.666C12.5443 5.33331 10.5095 6.17617 9.00916 7.67646C7.50887 9.17675 6.66602 11.2116 6.66602 13.3333V50.6666C6.66602 52.7884 7.50887 54.8232 9.00916 56.3235C10.5095 57.8238 12.5443 58.6666 14.666 58.6666H30.666C31.3733 58.6666 32.0515 58.3857 32.5516 57.8856C33.0517 57.3855 33.3327 56.7072 33.3327 56C33.3327 55.2927 33.0517 54.6145 32.5516 54.1144C32.0515 53.6143 31.3733 53.3333 30.666 53.3333ZM33.3327 14.4266L40.2393 21.3333H35.9993C35.2921 21.3333 34.6138 21.0524 34.1137 20.5523C33.6136 20.0522 33.3327 19.3739 33.3327 18.6666V14.4266ZM19.9993 37.3333H35.9993C36.7066 37.3333 37.3849 37.0524 37.885 36.5523C38.3851 36.0522 38.666 35.3739 38.666 34.6666C38.666 33.9594 38.3851 33.2811 37.885 32.781C37.3849 32.2809 36.7066 32 35.9993 32H19.9993C19.2921 32 18.6138 32.2809 18.1137 32.781C17.6136 33.2811 17.3327 33.9594 17.3327 34.6666C17.3327 35.3739 17.6136 36.0522 18.1137 36.5523C18.6138 37.0524 19.2921 37.3333 19.9993 37.3333ZM30.666 42.6666H19.9993C19.2921 42.6666 18.6138 42.9476 18.1137 43.4477C17.6136 43.9478 17.3327 44.6261 17.3327 45.3333C17.3327 46.0406 17.6136 46.7188 18.1137 47.2189C18.6138 47.719 19.2921 48 19.9993 48H30.666C31.3733 48 32.0515 47.719 32.5516 47.2189C33.0517 46.7188 33.3327 46.0406 33.3327 45.3333C33.3327 44.6261 33.0517 43.9478 32.5516 43.4477C32.0515 42.9476 31.3733 42.6666 30.666 42.6666ZM19.9993 26.6666H22.666C23.3733 26.6666 24.0515 26.3857 24.5516 25.8856C25.0517 25.3855 25.3327 24.7072 25.3327 24C25.3327 23.2927 25.0517 22.6145 24.5516 22.1144C24.0515 21.6143 23.3733 21.3333 22.666 21.3333H19.9993C19.2921 21.3333 18.6138 21.6143 18.1137 22.1144C17.6136 22.6145 17.3327 23.2927 17.3327 24C17.3327 24.7072 17.6136 25.3855 18.1137 25.8856C18.6138 26.3857 19.2921 26.6666 19.9993 26.6666ZM56.5593 43.44C56.3114 43.19 56.0165 42.9917 55.6916 42.8563C55.3666 42.7209 55.018 42.6512 54.666 42.6512C54.314 42.6512 53.9654 42.7209 53.6405 42.8563C53.3155 42.9917 53.0206 43.19 52.7727 43.44L43.9994 52.24L40.5593 48.7733C40.3107 48.5247 40.0155 48.3274 39.6907 48.1929C39.3658 48.0583 39.0176 47.9891 38.666 47.9891C38.3144 47.9891 37.9662 48.0583 37.6413 48.1929C37.3165 48.3274 37.0213 48.5247 36.7727 48.7733C36.524 49.022 36.3268 49.3171 36.1923 49.642C36.0577 49.9668 35.9884 50.315 35.9884 50.6666C35.9884 51.0183 36.0577 51.3665 36.1923 51.6913C36.3268 52.0162 36.524 52.3113 36.7727 52.56L42.106 57.8933C42.3539 58.1433 42.6489 58.3416 42.9738 58.477C43.2988 58.6124 43.6473 58.6821 43.9994 58.6821C44.3514 58.6821 44.6999 58.6124 45.0249 58.477C45.3498 58.3416 45.6448 58.1433 45.8927 57.8933L56.5593 47.2266C56.8093 46.9787 57.0077 46.6838 57.1431 46.3589C57.2784 46.0339 57.3481 45.6853 57.3481 45.3333C57.3481 44.9813 57.2784 44.6327 57.1431 44.3078C57.0077 43.9828 56.8093 43.6879 56.5593 43.44Z"
        fill="#2BCACA" />
</svg>