<svg width="65" height="64" viewBox="0 0 65 64" fill="none" xmlns="http://www.w3.org/2000/svg">
    <path
        d="M32.4993 34.6666C31.7921 34.6666 31.1138 34.9475 30.6137 35.4476C30.1136 35.9477 29.8327 36.626 29.8327 37.3333V45.3333C29.8327 46.0405 30.1136 46.7188 30.6137 47.2189C31.1138 47.719 31.7921 47.9999 32.4993 47.9999C33.2066 47.9999 33.8849 47.719 34.385 47.2189C34.8851 46.7188 35.166 46.0405 35.166 45.3333V37.3333C35.166 36.626 34.8851 35.9477 34.385 35.4476C33.8849 34.9475 33.2066 34.6666 32.4993 34.6666ZM45.8327 23.9999V18.6666C45.8327 15.1304 44.4279 11.739 41.9274 9.23849C39.427 6.73801 36.0356 5.33325 32.4993 5.33325C28.9631 5.33325 25.5717 6.73801 23.0713 9.23849C20.5708 11.739 19.166 15.1304 19.166 18.6666V23.9999C17.0443 23.9999 15.0095 24.8428 13.5092 26.3431C12.0089 27.8434 11.166 29.8782 11.166 31.9999V50.6666C11.166 52.7883 12.0089 54.8232 13.5092 56.3234C15.0095 57.8237 17.0443 58.6666 19.166 58.6666H45.8327C47.9544 58.6666 49.9892 57.8237 51.4895 56.3234C52.9898 54.8232 53.8327 52.7883 53.8327 50.6666V31.9999C53.8327 29.8782 52.9898 27.8434 51.4895 26.3431C49.9892 24.8428 47.9544 23.9999 45.8327 23.9999ZM24.4993 18.6666C24.4993 16.5449 25.3422 14.51 26.8425 13.0097C28.3428 11.5094 30.3776 10.6666 32.4993 10.6666C34.6211 10.6666 36.6559 11.5094 38.1562 13.0097C39.6565 14.51 40.4993 16.5449 40.4993 18.6666V23.9999H24.4993V18.6666ZM48.4993 50.6666C48.4993 51.3738 48.2184 52.0521 47.7183 52.5522C47.2182 53.0523 46.5399 53.3333 45.8327 53.3333H19.166C18.4588 53.3333 17.7805 53.0523 17.2804 52.5522C16.7803 52.0521 16.4993 51.3738 16.4993 50.6666V31.9999C16.4993 31.2927 16.7803 30.6144 17.2804 30.1143C17.7805 29.6142 18.4588 29.3333 19.166 29.3333H45.8327C46.5399 29.3333 47.2182 29.6142 47.7183 30.1143C48.2184 30.6144 48.4993 31.2927 48.4993 31.9999V50.6666Z"
        fill="#2BCACA" />
</svg>