<svg width="80" height="80" viewBox="0 0 80 80" fill="none" xmlns="http://www.w3.org/2000/svg">
<rect width="80" height="80" rx="40" fill="black"/>
<path fill-rule="evenodd" clip-rule="evenodd" d="M54.13 36.7163C52.9316 35.5179 52.9316 33.5748 54.13 32.3764C55.3284 31.1779 57.2715 31.1779 58.4699 32.3764C59.6684 33.5748 59.6684 35.5179 58.4699 36.7163C57.2715 37.9148 55.3284 37.9148 54.13 36.7163ZM43.8227 47.0237C42.9238 46.1248 42.9238 44.6675 43.8227 43.7687C44.7215 42.8699 46.1788 42.8699 47.0776 43.7687C47.9764 44.6675 47.9764 46.1248 47.0776 47.0237C46.1788 47.9225 44.7215 47.9225 43.8227 47.0237ZM60.0974 41.5987C59.1986 40.6999 59.1986 39.2426 60.0974 38.3438C60.9962 37.445 62.4535 37.445 63.3524 38.3438C64.2512 39.2426 64.2512 40.6999 63.3524 41.5987C62.4535 42.4976 60.9962 42.4976 60.0974 41.5987ZM54.6725 47.0237C53.7737 46.1248 53.7737 44.6675 54.6725 43.7687C55.5713 42.8699 57.0286 42.8699 57.9274 43.7687C58.8263 44.6675 58.8263 46.1248 57.9274 47.0237C57.0286 47.9225 55.5713 47.9225 54.6725 47.0237ZM66.0648 46.4812C65.4656 45.882 65.4656 44.9104 66.0648 44.3112C66.664 43.712 67.6356 43.712 68.2348 44.3112C68.834 44.9104 68.834 45.882 68.2348 46.4812C67.6356 47.0804 66.664 47.0804 66.0648 46.4812ZM60.6399 51.9061C60.0407 51.3069 60.0407 50.3353 60.6399 49.7361C61.2391 49.1369 62.2107 49.1369 62.8099 49.7361C63.4091 50.3353 63.4091 51.3069 62.8099 51.9061C62.2107 52.5053 61.2391 52.5053 60.6399 51.9061ZM48.7051 42.1412C47.5066 40.9428 47.5066 38.9997 48.7051 37.8013C49.9035 36.6029 51.8466 36.6029 53.045 37.8013C54.2435 38.9997 54.2435 40.9428 53.045 42.1412C51.8466 43.3397 49.9035 43.3397 48.7051 42.1412ZM48.7051 31.2914C47.5066 30.093 47.5066 28.1499 48.7051 26.9515C49.9035 25.753 51.8466 25.753 53.045 26.9515C54.2435 28.1499 54.2435 30.093 53.045 31.2914C51.8466 32.4898 49.9035 32.4898 48.7051 31.2914ZM43.2802 36.7163C42.0817 35.5179 42.0817 33.5748 43.2802 32.3764C44.4786 31.1779 46.4217 31.1779 47.6201 32.3764C48.8185 33.5748 48.8185 35.5179 47.6201 36.7163C46.4217 37.9148 44.4786 37.9148 43.2802 36.7163ZM32.3799 36.7163C31.1815 35.5179 31.1815 33.5748 32.3799 32.3764C33.5783 31.1779 35.5214 31.1779 36.7198 32.3764C37.9183 33.5748 37.9183 35.5179 36.7198 36.7163C35.5214 37.9148 33.5783 37.9148 32.3799 36.7163ZM22.0726 47.0237C21.1737 46.1248 21.1737 44.6675 22.0726 43.7687C22.9714 42.8699 24.4287 42.8699 25.3275 43.7687C26.2263 44.6675 26.2263 46.1248 25.3275 47.0237C24.4287 47.9225 22.9714 47.9225 22.0726 47.0237ZM38.3473 41.5987C37.4485 40.6999 37.4485 39.2426 38.3473 38.3438C39.2461 37.445 40.7034 37.445 41.6023 38.3438C42.5011 39.2426 42.5011 40.6999 41.6023 41.5987C40.7034 42.4976 39.2461 42.4976 38.3473 41.5987ZM32.9224 47.0237C32.0236 46.1248 32.0236 44.6675 32.9224 43.7687C33.8212 42.8699 35.2785 42.8699 36.1773 43.7687C37.0762 44.6675 37.0762 46.1248 36.1773 47.0237C35.2785 47.9225 33.8212 47.9225 32.9224 47.0237ZM11.7652 46.4812C11.166 45.882 11.166 44.9104 11.7652 44.3112C12.3644 43.712 13.336 43.712 13.9352 44.3112C14.5344 44.9104 14.5344 45.882 13.9352 46.4812C13.336 47.0804 12.3644 47.0804 11.7652 46.4812ZM17.1901 51.9061C16.5909 51.3069 16.5909 50.3353 17.1901 49.7361C17.7893 49.1369 18.7609 49.1369 19.3601 49.7361C19.9593 50.3353 19.9593 51.3069 19.3601 51.9061C18.7609 52.5053 17.7893 52.5053 17.1901 51.9061ZM38.8898 51.9061C38.2906 51.3069 38.2906 50.3353 38.8898 49.7361C39.489 49.1369 40.4606 49.1369 41.0598 49.7361C41.659 50.3353 41.659 51.3069 41.0598 51.9061C40.4606 52.5053 39.489 52.5053 38.8898 51.9061ZM16.6476 41.5987C15.7488 40.6999 15.7488 39.2426 16.6476 38.3438C17.5465 37.445 19.0038 37.445 19.9026 38.3438C20.8014 39.2426 20.8014 40.6999 19.9026 41.5987C19.0038 42.4976 17.5465 42.4976 16.6476 41.5987ZM26.955 42.1412C25.7565 40.9428 25.7565 38.9997 26.955 37.8013C28.1534 36.6029 30.0965 36.6029 31.2949 37.8013C32.4934 38.9997 32.4934 40.9428 31.2949 42.1412C30.0965 43.3397 28.1534 43.3397 26.955 42.1412ZM26.955 31.2914C25.7565 30.093 25.7565 28.1499 26.955 26.9515C28.1534 25.753 30.0965 25.753 31.2949 26.9515C32.4934 28.1499 32.4934 30.093 31.2949 31.2914C30.0965 32.4898 28.1534 32.4898 26.955 31.2914ZM21.5301 36.7163C20.3316 35.5179 20.3316 33.5748 21.5301 32.3764C22.7285 31.1779 24.6716 31.1779 25.87 32.3764C27.0684 33.5748 27.0684 35.5179 25.87 36.7163C24.6716 37.9148 22.7285 37.9148 21.5301 36.7163Z" fill="white"/>
</svg>
