<svg width="64" height="64" viewBox="0 0 64 64" fill="none" xmlns="http://www.w3.org/2000/svg">
    <path
        d="M31.9993 32.0002C30.4171 32.0002 28.8704 32.4694 27.5548 33.3484C26.2392 34.2275 25.2138 35.4769 24.6083 36.9387C24.0028 38.4005 23.8444 40.009 24.1531 41.5609C24.4617 43.1127 25.2237 44.5382 26.3425 45.657C27.4613 46.7758 28.8868 47.5378 30.4386 47.8464C31.9905 48.1551 33.599 47.9967 35.0608 47.3912C36.5226 46.7857 37.7721 45.7603 38.6511 44.4447C39.5302 43.1291 39.9993 41.5824 39.9993 40.0002C39.9993 37.8784 39.1565 35.8436 37.6562 34.3433C36.1559 32.843 34.1211 32.0002 31.9993 32.0002ZM31.9993 42.6668C31.4719 42.6668 30.9564 42.5104 30.5178 42.2174C30.0793 41.9244 29.7375 41.5079 29.5357 41.0207C29.3338 40.5334 29.281 39.9972 29.3839 39.4799C29.4868 38.9626 29.7408 38.4875 30.1137 38.1145C30.4867 37.7416 30.9618 37.4876 31.4791 37.3847C31.9964 37.2818 32.5326 37.3347 33.0198 37.5365C33.5071 37.7383 33.9236 38.0801 34.2166 38.5186C34.5096 38.9572 34.666 39.4727 34.666 40.0002C34.666 40.7074 34.3851 41.3857 33.885 41.8858C33.3849 42.3859 32.7066 42.6668 31.9993 42.6668ZM30.106 25.8935C30.3596 26.1363 30.6587 26.3266 30.986 26.4535C31.3052 26.5946 31.6504 26.6674 31.9993 26.6674C32.3483 26.6674 32.6935 26.5946 33.0127 26.4535C33.34 26.3266 33.6391 26.1363 33.8927 25.8935L39.9993 19.8935C40.5156 19.3772 40.8057 18.677 40.8057 17.9468C40.8057 17.2167 40.5156 16.5165 39.9993 16.0002C39.4831 15.4839 38.7828 15.1938 38.0527 15.1938C37.3225 15.1938 36.6223 15.4839 36.106 16.0002L34.666 17.5735V8.00016C34.666 7.29292 34.3851 6.61464 33.885 6.11454C33.3849 5.61445 32.7066 5.3335 31.9993 5.3335C31.2921 5.3335 30.6138 5.61445 30.1137 6.11454C29.6136 6.61464 29.3327 7.29292 29.3327 8.00016V17.5735L27.8927 16.0002C27.3764 15.4839 26.6762 15.1938 25.946 15.1938C25.2159 15.1938 24.5156 15.4839 23.9993 16.0002C23.4831 16.5165 23.193 17.2167 23.193 17.9468C23.193 18.677 23.4831 19.3772 23.9993 19.8935L30.106 25.8935ZM50.666 40.0002C50.666 39.4727 50.5096 38.9572 50.2166 38.5186C49.9236 38.0801 49.5071 37.7383 49.0198 37.5365C48.5326 37.3347 47.9964 37.2818 47.4791 37.3847C46.9618 37.4876 46.4867 37.7416 46.1137 38.1145C45.7408 38.4875 45.4868 38.9626 45.3839 39.4799C45.281 39.9972 45.3338 40.5334 45.5357 41.0207C45.7375 41.5079 46.0793 41.9244 46.5178 42.2174C46.9564 42.5104 47.4719 42.6668 47.9993 42.6668C48.7066 42.6668 49.3849 42.3859 49.885 41.8858C50.3851 41.3857 50.666 40.7074 50.666 40.0002ZM53.3327 21.3335H45.3327C44.6254 21.3335 43.9472 21.6144 43.4471 22.1145C42.947 22.6146 42.666 23.2929 42.666 24.0002C42.666 24.7074 42.947 25.3857 43.4471 25.8858C43.9472 26.3859 44.6254 26.6668 45.3327 26.6668H53.3327C54.0399 26.6668 54.7182 26.9478 55.2183 27.4479C55.7184 27.948 55.9993 28.6263 55.9993 29.3335V50.6668C55.9993 51.3741 55.7184 52.0524 55.2183 52.5525C54.7182 53.0525 54.0399 53.3335 53.3327 53.3335H10.666C9.95877 53.3335 9.28049 53.0525 8.7804 52.5525C8.2803 52.0524 7.99935 51.3741 7.99935 50.6668V29.3335C7.99935 28.6263 8.2803 27.948 8.7804 27.4479C9.28049 26.9478 9.95877 26.6668 10.666 26.6668H18.666C19.3733 26.6668 20.0515 26.3859 20.5516 25.8858C21.0517 25.3857 21.3327 24.7074 21.3327 24.0002C21.3327 23.2929 21.0517 22.6146 20.5516 22.1145C20.0515 21.6144 19.3733 21.3335 18.666 21.3335H10.666C8.54428 21.3335 6.50945 22.1763 5.00916 23.6766C3.50887 25.1769 2.66602 27.2118 2.66602 29.3335V50.6668C2.66602 52.7886 3.50887 54.8234 5.00916 56.3237C6.50945 57.824 8.54428 58.6668 10.666 58.6668H53.3327C55.4544 58.6668 57.4892 57.824 58.9895 56.3237C60.4898 54.8234 61.3327 52.7886 61.3327 50.6668V29.3335C61.3327 27.2118 60.4898 25.1769 58.9895 23.6766C57.4892 22.1763 55.4544 21.3335 53.3327 21.3335ZM13.3327 40.0002C13.3327 40.5276 13.4891 41.0432 13.7821 41.4817C14.0751 41.9202 14.4916 42.262 14.9789 42.4638C15.4661 42.6657 16.0023 42.7185 16.5196 42.6156C17.0369 42.5127 17.512 42.2587 17.885 41.8858C18.2579 41.5128 18.5119 41.0377 18.6148 40.5204C18.7177 40.0031 18.6649 39.4669 18.463 38.9797C18.2612 38.4924 17.9194 38.0759 17.4809 37.7829C17.0423 37.4899 16.5268 37.3335 15.9993 37.3335C15.2921 37.3335 14.6138 37.6144 14.1137 38.1145C13.6136 38.6146 13.3327 39.2929 13.3327 40.0002Z"
        fill="#2BCACA" />
</svg>