<svg width="128" height="129" viewBox="0 0 128 129" fill="none" xmlns="http://www.w3.org/2000/svg">
    <path
        d="M124.103 72.6233C110.656 52.0331 112.085 30.9273 105.604 21.0038C99.1219 11.0802 79.8045 -6.02913 34.1619 23.7842C-11.4808 53.5975 0.128094 86.0064 7.26054 96.9184C40.6401 148.019 147.922 109.089 124.103 72.6233Z"
        fill="#EFEFEF" />
    <path
        d="M104 66.9166V90.0277C104 93.9388 100.8 97.1388 96.8889 97.1388H31.1111C27.2 97.1388 24 93.9388 24 90.0277V66.9166H37.3689C38.9333 66.9166 40.32 67.9477 40.7467 69.4411L44.5867 82.17C45.0133 83.6633 46.4 84.6944 47.9644 84.6944H80.0356C81.6 84.6944 82.9867 83.6633 83.4133 82.17L87.2533 69.4411C87.68 67.9477 89.0667 66.9166 90.6311 66.9166H104Z"
        fill="#F3F3F1" />
    <path
        d="M104 66.9166H90.6311C89.0667 66.9166 87.68 67.9478 87.2533 69.4411L83.4133 82.17C82.9867 83.6633 81.6 84.6944 80.0356 84.6944H47.9644C46.4 84.6944 45.0133 83.6633 44.5867 82.17L40.7467 69.4411C40.32 67.9478 38.9333 66.9166 37.3689 66.9166H24L40 31.3611H88L104 66.9166Z"
        fill="#2BCACA" fill-opacity="0.25" />
    <path
        d="M91.4134 82.17L95.2534 69.4411C95.6801 67.9477 97.0668 66.9166 98.6312 66.9166H90.6312C89.0668 66.9166 87.6801 67.9477 87.2534 69.4411L83.4134 82.17C82.9868 83.6633 81.6001 84.6944 80.0356 84.6944H88.0356C89.6001 84.6944 90.9868 83.6633 91.4134 82.17Z"
        fill="#D5DBE1" />
    <path
        d="M32 90.0277V66.9166H24V90.0277C24 93.9388 27.2 97.1388 31.1111 97.1388H39.1111C35.2 97.1388 32 93.9388 32 90.0277Z"
        fill="#D5DBE1" />
    <path d="M40 31.3611L24 66.9166H32L48 31.3611H40Z" fill="#229E9E" />
    <path
        d="M52.5867 82.17L48.7467 69.4411C48.32 67.9477 46.9333 66.9166 45.3689 66.9166H37.3689C38.9333 66.9166 40.32 67.9477 40.7467 69.4411L44.5867 82.17C45.0133 83.6633 46.4 84.6944 47.9644 84.6944H55.9644C54.4 84.6944 53.0133 83.6633 52.5867 82.17Z"
        fill="#229E9E" />
    <path
        d="M98.6451 23.3611C95.7047 23.3611 93.3118 20.9682 93.3118 18.0278C93.3118 15.0873 95.7047 12.6945 98.6451 12.6945C101.586 12.6945 103.978 15.0873 103.978 18.0278C103.978 20.9682 101.586 23.3611 98.6451 23.3611ZM98.6451 16.25C97.6638 16.25 96.8673 17.05 96.8673 18.0278C96.8673 19.0056 97.6638 19.8056 98.6451 19.8056C99.6264 19.8056 100.423 19.0056 100.423 18.0278C100.423 17.05 99.6264 16.25 98.6451 16.25Z"
        fill="#A4AFC1" />
    <path d="M25.0417 17.3862L27.5559 14.8721L32.5842 19.9004L30.0701 22.4145L25.0417 17.3862Z" fill="#A4AFC1" />
    <path d="M24.4082 34.3588L29.4365 29.3304L31.9507 31.8446L26.9224 36.8729L24.4082 34.3588Z" fill="#A4AFC1" />
    <path d="M38.8677 19.9017L43.896 14.8734L46.4102 17.3876L41.3818 22.4159L38.8677 19.9017Z" fill="#A4AFC1" />
    <path
        d="M96.8888 99.8056H31.111C25.7173 99.8056 21.3333 95.4216 21.3333 90.0278V66.9167C21.3333 66.5398 21.4115 66.1665 21.5679 65.8216L37.5679 30.266C37.9981 29.3096 38.951 28.6945 39.9999 28.6945H87.9999C89.0488 28.6945 90.0017 29.3096 90.4319 30.266L106.432 65.8216C106.588 66.1665 106.667 66.5398 106.667 66.9167V90.0278C106.667 95.4216 102.283 99.8056 96.8888 99.8056ZM26.6666 67.4891V90.0278C26.6666 92.4776 28.6613 94.4722 31.111 94.4722H96.8888C99.3386 94.4722 101.333 92.4776 101.333 90.0278V67.4891L86.2755 34.0278H41.7244L26.6666 67.4891Z"
        fill="#2BCACA" />
    <path
        d="M80.0213 87.3611H47.9787C45.2124 87.3611 42.816 85.5798 42.0196 82.9273L38.2044 70.2198C38.0907 69.8464 37.7422 69.5833 37.3547 69.5833H24V64.25H37.3547C40.1209 64.25 42.5173 66.0313 43.3138 68.6838L47.1289 81.3913C47.2427 81.7682 47.5911 82.0278 47.9787 82.0278H80.0213C80.4089 82.0278 80.7609 81.7682 80.8711 81.3913L84.6862 68.6838C85.4827 66.0313 87.8756 64.25 90.6453 64.25H104V69.5833H90.6453C90.2578 69.5833 89.9058 69.8429 89.7956 70.2198L85.9804 82.9273C85.184 85.5798 82.7876 87.3611 80.0213 87.3611Z"
        fill="#2BCACA" />
    <path d="M7.11108 94.4722H120.889V99.8055H7.11108V94.4722Z" fill="#2BCACA" />
</svg>