<svg fill="none" height="82" viewBox="0 0 82 82" width="82" xmlns="http://www.w3.org/2000/svg"><rect fill="#fff" height="82" rx="12" width="82"/><path clip-rule="evenodd" d="m59.1162 44.6631c.6081 1.3243 2.3987 1.792 3.4291.7616l1.8897-1.8897c1.9526-1.9526 5.1185-1.9526 7.0711 0s1.9526 5.1185 0 7.0711l-15.2721 15.272c-3.6687 4.355-9.1626 7.1219-15.3026 7.1219-6.403 0-12.1032-3.0089-15.7638-7.6898l-14.7031-14.7032c-1.95261-1.9526-1.95261-5.1184 0-7.071 1.9526-1.9526 5.1185-1.9526 7.0711 0l1.861 1.861c1.0079 1.0079 2.7577.5545 3.353-.7406.1176-.2559.1816-.5305.1816-.8121l-.0001-22.8444c0-2.7614 2.2386-5 5-5 2.7615 0 5 2.2386 5 5v11.5565c0 .9944 1.0187 1.6694 1.9669 1.3698.6001-.1897 1.0336-.736 1.0336-1.3654v-18.5608c0-2.7614 2.2386-4.99997 5-4.99997s5 2.23857 5 4.99997v18.5612c0 .6292.4334 1.1754 1.0333 1.365.9479.2996 1.9663-.3752 1.9663-1.3693v-11.557c0-2.7614 2.2386-5 5-5s5 2.2386 5 5v22.8351c0 .2872.0652.5671.185.8281z" fill="#fd4848" fill-rule="evenodd"/><path d="m56.9318 54.9999s-7.1634 10-16 10c-8.8365 0-16-10-16-10s7.1635-10 16-10c8.8366 0 16 10 16 10z" fill="#d5ff5c"/><g stroke="#fd4848"><path d="m48.4316 55.0001c0 4.1419-3.3576 7.4996-7.4996 7.4996-4.1419 0-7.4996-3.3577-7.4996-7.4996s3.3577-7.4996 7.4996-7.4996c4.142 0 7.4996 3.3577 7.4996 7.4996z" stroke-width="1.00078"/><path d="m45.4314 55.0003c0 2.4851-2.0146 4.4997-4.4996 4.4997-2.4851 0-4.4996-2.0146-4.4996-4.4997 0-2.485 2.0145-4.4996 4.4996-4.4996 2.485 0 4.4996 2.0146 4.4996 4.4996z" stroke-width="1.00078"/><path d="m51.4314 55.0001c.0001 5.7987-4.7008 10.4996-10.4996 10.4996-5.7987 0-10.4996-4.7009-10.4996-10.4996 0-5.7988 4.7009-10.4996 10.4996-10.4996 5.7988 0 10.4996 4.7008 10.4996 10.4996z" stroke-width="1.00078"/><path d="m54.4314 55c0 7.4556-6.044 13.4996-13.4996 13.4996-7.4557 0-13.4996-6.0439-13.4996-13.4996 0-7.4556 6.0439-13.4996 13.4996-13.4996 7.4556 0 13.4996 6.044 13.4996 13.4996z" stroke-width="1.00078"/></g><ellipse cx="40.932" cy="54.9999" fill="#fd4848" rx="2" ry="2"/><path d="m25.6515 55.122c-.0342-.0439-.0657-.0846-.0944-.1221.0287-.0374.0602-.0781.0944-.122.2086-.2676.5177-.6517.9164-1.1134.7981-.9241 1.9524-2.1556 3.3772-3.3858 2.8651-2.4738 6.7497-4.8784 10.9867-4.8784 4.2371 0 8.1216 2.4046 10.9867 4.8784 1.4248 1.2302 2.5792 2.4617 3.3772 3.3858.3988.4617.7078.8458.9164 1.1134.0342.0438.0657.0846.0944.122-.0287.0375-.0602.0782-.0944.1221-.2086.2676-.5176.6517-.9164 1.1134-.798.9241-1.9524 2.1556-3.3772 3.3858-2.8651 2.4738-6.7496 4.8783-10.9867 4.8783-4.237 0-8.1216-2.4045-10.9867-4.8783-1.4248-1.2302-2.5791-2.4617-3.3772-3.3858-.3987-.4617-.7078-.8458-.9164-1.1134z" stroke="#d5ff5c" stroke-width="1.00078"/></svg>