<svg width="100" height="90" viewBox="0 0 100 90" fill="none" xmlns="http://www.w3.org/2000/svg">
    <path
        d="M85 20H80V15C80 11.0218 78.4196 7.20644 75.6066 4.3934C72.7936 1.58035 68.9782 0 65 0H15C11.0218 0 7.20644 1.58035 4.3934 4.3934C1.58035 7.20644 0 11.0218 0 15V75C0 78.9782 1.58035 82.7936 4.3934 85.6066C7.20644 88.4196 11.0218 90 15 90H85C88.9782 90 92.7936 88.4196 95.6066 85.6066C98.4196 82.7936 100 78.9782 100 75V35C100 31.0218 98.4196 27.2064 95.6066 24.3934C92.7936 21.5804 88.9782 20 85 20ZM15 10H65C66.3261 10 67.5979 10.5268 68.5355 11.4645C69.4732 12.4021 70 13.6739 70 15V20H15C13.6739 20 12.4021 19.4732 11.4645 18.5355C10.5268 17.5979 10 16.3261 10 15C10 13.6739 10.5268 12.4021 11.4645 11.4645C12.4021 10.5268 13.6739 10 15 10ZM90 60H85C83.6739 60 82.4021 59.4732 81.4645 58.5355C80.5268 57.5979 80 56.3261 80 55C80 53.6739 80.5268 52.4021 81.4645 51.4645C82.4021 50.5268 83.6739 50 85 50H90V60ZM90 40H85C81.0218 40 77.2064 41.5803 74.3934 44.3934C71.5804 47.2064 70 51.0218 70 55C70 58.9782 71.5804 62.7936 74.3934 65.6066C77.2064 68.4196 81.0218 70 85 70H90V75C90 76.3261 89.4732 77.5979 88.5355 78.5355C87.5979 79.4732 86.3261 80 85 80H15C13.6739 80 12.4021 79.4732 11.4645 78.5355C10.5268 77.5979 10 76.3261 10 75V29.15C11.6063 29.7151 13.2972 30.0025 15 30H85C86.3261 30 87.5979 30.5268 88.5355 31.4645C89.4732 32.4021 90 33.6739 90 35V40Z"
        fill="#2BCACA" />
</svg>